<svg width="80" height="27" fill="none" xmlns="http://www.w3.org/2000/svg"><path d="M20.33 9.398h-9.412v2.722h6.675c-.33 3.818-3.588 5.446-6.664 5.446-3.935 0-7.368-3.018-7.368-7.248 0-4.12 3.273-7.294 7.377-7.294 3.166 0 5.032 1.968 5.032 1.968l1.955-1.974S15.415.294 10.838.294C5.009.294.5 5.09.5 10.27c0 5.075 4.242 10.024 10.487 10.024 5.492 0 9.513-3.667 9.513-9.09 0-1.145-.17-1.806-.17-1.806z" fill="#4285F4"/><path d="M28.006 8.294c-3.79 0-6.506 2.976-6.506 6.447 0 3.522 2.634 6.553 6.55 6.553 3.546 0 6.45-2.721 6.45-6.477 0-4.305-3.378-6.523-6.494-6.523zm.038 2.554c1.863 0 3.63 1.513 3.63 3.952 0 2.386-1.76 3.943-3.639 3.943-2.065 0-3.695-1.662-3.695-3.962 0-2.252 1.61-3.933 3.704-3.933z" fill="#EA4335"/><path d="M42.006 8.294c-3.79 0-6.506 2.976-6.506 6.447 0 3.522 2.634 6.553 6.55 6.553 3.546 0 6.45-2.721 6.45-6.477 0-4.305-3.378-6.523-6.494-6.523zm.038 2.554c1.864 0 3.63 1.513 3.63 3.952 0 2.386-1.76 3.943-3.639 3.943-2.065 0-3.695-1.662-3.695-3.962 0-2.252 1.61-3.933 3.704-3.933z" fill="#FBBC05"/><path d="M55.505 8.294c-3.362 0-6.005 2.923-6.005 6.203 0 3.736 3.064 6.214 5.947 6.214 1.783 0 2.73-.702 3.43-1.508v1.224c0 2.142-1.31 3.424-3.288 3.424-1.91 0-2.869-1.41-3.202-2.21l-2.404.998c.853 1.79 2.57 3.655 5.626 3.655 3.343 0 5.891-2.09 5.891-6.472V8.667h-2.623V9.72c-.805-.862-1.908-1.425-3.372-1.425zm.243 2.434c1.649 0 3.341 1.397 3.341 3.782 0 2.425-1.689 3.761-3.377 3.761-1.793 0-3.46-1.444-3.46-3.738 0-2.383 1.732-3.805 3.496-3.805z" fill="#4285F4"/><path d="M73.603 8.294c-3.317 0-6.103 2.62-6.103 6.485 0 4.09 3.105 6.515 6.422 6.515 2.768 0 4.467-1.503 5.481-2.85l-2.262-1.493c-.587.904-1.568 1.788-3.205 1.788-1.84 0-2.686-1-3.21-1.968l8.774-3.613-.456-1.058c-.847-2.074-2.825-3.806-5.44-3.806zm.114 2.498c1.196 0 2.056.63 2.421 1.387l-5.858 2.43c-.253-1.882 1.543-3.817 3.437-3.817z" fill="#EA4335"/><path d="M63.5 20.294h3v-19h-3v19z" fill="#34A853"/></svg>