<svg width="722" height="485" fill="none" xmlns="http://www.w3.org/2000/svg"><path d="M614.523 127.74v297.255c0 5.201-3.756 9.419-8.384 9.419H177.266c-4.628 0-8.384-4.218-8.384-9.419V127.74c0-5.204 3.756-9.419 8.384-9.419h428.873c4.632 0 8.384 4.215 8.384 9.419z" fill="#F8F8F8"/><path d="M614.522 126.704v22.445H168.885v-22.445a8.384 8.384 0 018.384-8.383h428.873a8.379 8.379 0 018.38 8.383z" fill="#292620"/><path d="M182.516 133.735a3.904 3.904 0 117.808 0 3.904 3.904 0 01-7.808 0zM197.893 133.734a3.904 3.904 0 117.808 0 3.904 3.904 0 01-7.808 0zM213.659 133.734a3.904 3.904 0 117.808 0 3.904 3.904 0 01-7.808 0z" fill="#DFEBFD"/><path opacity=".5" d="M455.671 341.871H408.67v47.001h47.001v-47.001z" fill="#EBF3FA"/><path d="M412.201 383.504l13.881-25.031 10.209 13.924 5.097-5.571 10.802 16.678h-39.989zM432.699 354.88a3.593 3.593 0 117.185.001 3.593 3.593 0 01-7.185-.001z" fill="#5C5C5C"/><path opacity=".5" d="M525.859 255.835H408.67v67.925h117.189v-67.925z" fill="#D5DBDA"/><path d="M454.04 272.396v34.799l26.447-17.4-26.447-17.399z" fill="#D4B982"/><path d="M579.473 205.26a28.1 28.1 0 01-7.998 19.685c-4.933 5.053-11.735 8.186-19.222 8.186H235.129c-16.185 0-29.428-12.543-29.428-27.871 0-7.665 3.309-14.631 8.646-19.681 5.331-5.054 12.691-8.187 20.782-8.187h317.127c14.97 0 27.217 12.54 27.217 27.868z" fill="#fff"/><path d="M579.474 205.26a28.1 28.1 0 01-7.999 19.685c-4.933 5.053-11.735 8.186-19.222 8.186h-57.385v-55.739h57.385c14.973 0 27.221 12.54 27.221 27.868z" fill="#D4B982"/><path d="M543.153 215.393c-.706 0-1.415-.053-2.127-.158a14.11 14.11 0 01-9.318-5.596c-4.659-6.296-3.331-15.208 2.963-19.867 6.296-4.659 15.207-3.33 19.866 2.967 4.659 6.296 3.33 15.207-2.966 19.866a14.103 14.103 0 01-8.418 2.788zm-7.089-23.743c-5.257 3.892-6.37 11.338-2.476 16.595a11.785 11.785 0 007.786 4.675 11.803 11.803 0 008.809-2.199c5.258-3.891 6.371-11.338 2.476-16.595-3.891-5.257-11.337-6.367-16.595-2.476z" fill="#fff"/><path d="M533.314 209.889l-1.393-1.881-15.582 11.532 1.393 1.881 15.582-11.532z" fill="#fff"/><path d="M511.653 224.482a2.09 2.09 0 01.438-2.923l9.176-6.793a2.093 2.093 0 012.924.435c.687.928.49 2.236-.435 2.923l-9.176 6.793a2.092 2.092 0 01-2.927-.435z" fill="#fff"/><path d="M299.499 166.853c-.598.685-.676 1.452-.379 2.27 0 .003.003.009.006.012.545 1.514 2.355 3.204 4.458 4.893.269.216.509.413.716.598.055.05.108.096.16.145.043.037.083.077.123.111 1.958 1.807 1.221 2.22 4.743 5.89 4.014 4.178 6.777 4.255 7.563 3.876.666-.324-.684-2.541-2.183-5.033-.074-.12-.145-.24-.219-.363-.2-.33-.397-.666-.595-.999-1.754-2.998-1.304-4.404-.885-8.865.339-3.623 5.646-20.246 5.646-20.246l-7.693-1.329s-2.322 13.237-4.875 15.275c-1.366 1.086-2.892 1.101-4.206 1.906a8.436 8.436 0 00-.274.172c-.746.491-1.508 1-2.106 1.687z" fill="#D4B982"/><path d="M299.499 166.853c-.598.685-.676 1.453-.379 2.27 0 .003.003.009.006.012.669 1.511 2.432 3.195 4.464 4.878.266.222.5.423.71.614.055.049.108.095.16.145.043.037.083.077.123.111 1.958 1.806 1.221 2.22 4.743 5.889 4.014 4.178 6.777 4.255 7.563 3.876.666-.324-.684-2.541-2.183-5.032-.78-.287-4.412-1.764-7.156-5.276-2.328-2.972-3.91-6.762-5.495-9.09-.176-.034-.278-.052-.453-.083-.743.49-1.505.999-2.103 1.686z" fill="#292620"/><path d="M361.54 162.068c.475 2.374 3.861 1.979 7.644 1.058 3.783-.922 2.883.175 8.267-.42 5.383-.595 7.014-2.599 7.178-3.401.148-.709-2.513-.962-5.365-1.292-.358-.04-.719-.086-1.079-.129-3.223-.404-5.578-2.486-8.505-4.194-2.771-1.619-6.903-8.208-6.903-8.208l-7.382.583s3.873 5.886 5.368 8.445c.882 1.505.833 3.494.722 5.033-.056.835-.111 1.689.055 2.525z" fill="#D4B982"/><path d="M369.184 163.125c3.783-.922 2.883.176 8.266-.419 5.384-.595 7.015-2.6 7.179-3.401.148-.709-2.513-.962-5.366-1.292l-.027.055s-3.229 2.288-7.709 2.393c-3.651.086-7.52-.959-10.043-.919-.058.836-.111 1.69.056 2.526.475 2.377 3.86 1.982 7.644 1.057zM333.265 114.855l-6.907 18.568-9.019 24.245s-2.445.234-4.785-.438c-2.155-.623-4.628-2.254-4.628-2.254s2.51-26.033 7.184-40.979c1.197-3.835 2.538-6.937 4.018-8.682 7.237-8.55 14.137 9.54 14.137 9.54z" fill="#292620"/><path d="M326.26 85.359c-3.929-1.268-14.178-.025-25.297 1.982a7.54 7.54 0 01-7.785-3.518l-27.979-2.195s-9.241 20.47-4.191 33.519c.743 1.918 2.371 3.115 4.887 3.158 0 0 16.907.031 22.315.031 13.916.006 29.45-9.556 31.46-9.957 3.29-.656 4.604 5.924 7.891 12.83 3.287 6.907 30.905 30.6 30.905 30.6s4.246.043 6-.613c1.887-.706 2.578-1.625 2.578-1.625s-30.591-60.92-40.784-64.212z" fill="#5C5C5C"/><path d="M290.233 1.662a9.947 9.947 0 00-5.344-1.394c-.863.025-1.727-.03-2.581-.157-10.678-1.57-17.113 13.94-17.492 18.627-.694 8.606-5.248 9.913-11.655 15.3-12.852 10.801-9.087 23.357-2.066 28.025 4.215 2.8 11.643.003 11.643.003.105.074 20.323-11.291 30.285-16.774 14.939-2.118 3.21-40.056-2.79-43.63z" fill="#292620"/><path d="M284.677 40.621c.043.028-4.903 1.714-8.208.25-3.111-1.376-5.467-6.497-5.421-6.497 1.415-.065 2.969-1.301 4.169-9.42l.601.216 10.132 3.65s-.734 3.25-1.212 6.346c-.397 2.597-.613 5.085-.061 5.455z" fill="#D4B982"/><path d="M285.953 28.817s-.404 1.755-.996 5.033c-5.821-1.049-8.316-5.535-9.136-8.68l10.132 3.647z" fill="#B89B61"/><path d="M287.461 32.046s-13.863-1.866-12.568-10.48c1.295-8.616.376-14.66 9.284-13.833 8.905.827 10.129 4.372 10.394 7.354.266 2.979-3.472 17.221-7.11 16.959z" fill="#D4B982"/><path d="M294.065 10.36s-8.877 7.644-14.914 8.261c-6.038.614-8.322-1.323-8.322-1.323s3.558-2.954 5.701-7.72a4.246 4.246 0 013.5-2.501c4.313-.37 12.484-.54 14.035 3.284z" fill="#292620"/><path d="M288.519 9.676s2.969 2.87 3.904 5.001c.9 2.054 1.171 6.969.45 8.92 0 0 4.628-8.994 2.01-13.363-2.775-4.638-6.364-.558-6.364-.558z" fill="#292620"/><path d="M296.345 61.049c-.429 28.065-.124 22.2-3.195 24.862-.74.64-2.818 1.023-5.556 1.202-8.606.567-23.733-.854-24.307-2.445-1.982-5.504-.579-7.212-2.235-15.64a73.99 73.99 0 00-.635-2.922c-1.379-5.788-2.723-7.755 2.18-17.051 4.446-8.418 9.062-15.251 9.478-15.005 11.717 6.963 12.667 1.114 12.667 1.114s11.812 12.195 11.603 25.885zM326.358 133.423l-9.019 24.244s-2.445.235-4.785-.437c-2.155-.623-4.628-2.254-4.628-2.254s2.51-26.034 7.184-40.979l11.248 19.426z" fill="#5C5C5C"/><path d="M284.741 35.163s12.059 2.048 13.475 7.243c1.415 5.193 6.065 36.712 6.065 36.712s-3.401 3.32-6.235.487c-2.83-2.834-8.905-29.493-8.905-29.493l-4.4-14.949z" fill="#5C5C5C"/><path d="M287.593 87.113c-8.605.568-23.733-.854-24.306-2.445-1.983-5.504-.58-7.212-2.236-15.639l4.154-11.686s-.691 13.015 3.145 16.44c3.832 3.426 15.713 6.615 17.578 9.476.904 1.372 1.496 2.747 1.665 3.854z" fill="#292620"/><path d="M277.736 81.634s8.492-1.887 9.861-1.135c1.369.756 4.718 3.5 5.134 4.453.419.956-3.05-.725-4.178-1.03-.731-.197-2.655.472-3.608.79-4.008 1.334-6.463.647-6.463.647l-.746-3.725z" fill="#D4B982"/><path d="M272.069 34.044s-11.4.7-15.35 6.2c-5.556 7.746-16.588 40.764-10.273 45.17 7.11 4.961 32.369 1.307 32.369 1.307s.842-3.928-.327-5.83c-1.168-1.9-20.171-4.977-21.047-5.856-.876-.879 10.971-17.1 10.971-19.73 0-2.628 3.657-21.26 3.657-21.26z" fill="#5C5C5C"/><path d="M288.007 82.864s1.779 2.294 2.362 2.569c.583.274.959.206.959.206l-1.2-2.158-2.121-.617zM287.597 80.502l5.171 2.513s-.219.36-.857.33c-.638-.03-2.242-.617-2.242-.617l-2.072-2.226z" fill="#D4B982"/><path d="M331.76 86.419l-54.024-.019v1.194l53.543.018.481-1.193z" fill="#292620"/><path d="M290.368 87.597l40.911.015 12.318-30.6-40.849-.015-12.38 30.6z" fill="#292620"/><path d="M320.957 72.306c.308-1.076-.312-1.949-1.388-1.949-1.076 0-2.198.873-2.507 1.946-.308 1.076.315 1.949 1.388 1.949 1.076.003 2.198-.87 2.507-1.946z" fill="#fff"/><path d="M293.005 268.921h-73.869a2.783 2.783 0 01-2.784-2.785v-1.171a2.783 2.783 0 012.784-2.785h73.869a2.784 2.784 0 012.785 2.785v1.171a2.786 2.786 0 01-2.785 2.785z" fill="#D4B982"/><path d="M255.101 292.096h-36.446a2.3 2.3 0 010-4.601h36.446a2.3 2.3 0 110 4.601zM283.009 282.45h-64.514a2.141 2.141 0 01-2.14-2.14v-.318a2.14 2.14 0 012.14-2.139h64.514a2.14 2.14 0 012.14 2.139v.318c0 1.181-.959 2.14-2.14 2.14zM353.592 282.451h-60.105a2.07 2.07 0 01-2.069-2.069v-.463a2.07 2.07 0 012.069-2.069h60.105a2.07 2.07 0 012.069 2.069v.463a2.071 2.071 0 01-2.069 2.069zM300.56 292.096h-36.446a2.3 2.3 0 010-4.601h36.446a2.3 2.3 0 110 4.601z" fill="#E7EAE9"/><path d="M382.955 268.921h-73.87a2.783 2.783 0 01-2.784-2.785v-1.171a2.783 2.783 0 012.784-2.785h73.87a2.784 2.784 0 012.784 2.785v1.171a2.787 2.787 0 01-2.784 2.785zM293.005 389.59h-73.869a2.782 2.782 0 01-2.784-2.784v-1.172a2.783 2.783 0 012.784-2.784h73.869a2.784 2.784 0 012.785 2.784v1.172a2.787 2.787 0 01-2.785 2.784z" fill="#D4B982"/><path d="M255.101 412.762h-36.446a2.3 2.3 0 110-4.6h36.446a2.3 2.3 0 110 4.6zM283.009 403.117h-64.514a2.141 2.141 0 01-2.14-2.14v-.32c0-1.181.959-2.14 2.14-2.14h64.514c1.181 0 2.14.959 2.14 2.14v.32c0 1.181-.959 2.14-2.14 2.14zM353.592 403.118h-60.105a2.07 2.07 0 01-2.069-2.069v-.462a2.07 2.07 0 012.069-2.069h60.105a2.07 2.07 0 012.069 2.069v.462a2.071 2.071 0 01-2.069 2.069zM300.56 412.762h-36.446a2.3 2.3 0 110-4.6h36.446a2.3 2.3 0 110 4.6z" fill="#E7EAE9"/><path d="M382.955 389.59h-73.87a2.782 2.782 0 01-2.784-2.784v-1.172a2.783 2.783 0 012.784-2.784h73.87a2.783 2.783 0 012.784 2.784v1.172a2.789 2.789 0 01-2.784 2.784zM293.005 329.254h-73.869a2.783 2.783 0 01-2.784-2.785v-1.171a2.783 2.783 0 012.784-2.785h73.869a2.784 2.784 0 012.785 2.785v1.171a2.786 2.786 0 01-2.785 2.785z" fill="#D4B982"/><path d="M255.101 352.429h-36.446a2.3 2.3 0 110-4.6h36.446a2.3 2.3 0 010 4.6zM283.01 342.785h-64.515a2.141 2.141 0 01-2.14-2.14v-.321c0-1.181.959-2.14 2.14-2.14h64.515c1.181 0 2.14.959 2.14 2.14v.321c0 1.181-.959 2.14-2.14 2.14zM353.592 342.785h-60.106a2.07 2.07 0 01-2.069-2.069v-.463a2.07 2.07 0 012.069-2.069h60.106a2.07 2.07 0 012.069 2.069v.463a2.072 2.072 0 01-2.069 2.069zM300.56 352.429h-36.446a2.3 2.3 0 110-4.6h36.446a2.3 2.3 0 010 4.6z" fill="#E7EAE9"/><path d="M382.955 329.254h-73.87a2.783 2.783 0 01-2.784-2.785v-1.171a2.783 2.783 0 012.784-2.785h73.87a2.784 2.784 0 012.784 2.785v1.171a2.787 2.787 0 01-2.784 2.785zM175.496 296.805s.833-1.875 1.372-2.76c.54-.888 2.843-3.487 3.238-2.899.391.589 1.961 4.549 1.128 5.659-.832 1.11.053 3.037-4.091 4.205l-1.647-4.205z" fill="#D4B982"/><path d="M129.42 284.973s21.224 17.717 29.5 16.076c6.472-1.282 16.403-4.686 16.403-4.686l1.986 5.081s-8.908 12.081-18.192 12.161c-14.517.124-25.241-6.284-25.241-6.284l-4.456-22.348zM92.197 471.846s.617 9.938 2.538 10.083c.256.019 9.753.019 9.753.019l12.124-.071s-.08-2.92-3.623-3.54c-3.543-.617-9.476-3.108-11.622-7.792-2.257-4.924-9.17 1.301-9.17 1.301z" fill="#292620"/><path d="M91.5 472.537s3.685 1.234 6.562 1.234c3.21 0 6.127-.873 6.127-.873s.694-6.709 4.511-21.494c2.001-7.749 4.859-17.715 8.926-30.095 11.246-34.216 14.665-54.234 14.977-56.13.015-.099.024-.148.024-.148l-.037-.016-34.571-15.179s4.274 47.161-1.178 65.26c-.765 2.532-1.418 5.48-1.98 8.671-3.44 19.66-3.36 48.77-3.36 48.77z" fill="#5C5C5C"/><path d="M108.7 451.401c2.001-7.749 4.859-17.715 8.926-30.095 11.246-34.216 14.665-54.234 14.977-56.13-.004-.056-.007-.111-.013-.167L98.019 349.83s4.273 47.161-1.178 65.26c-.765 2.532 11.859 36.311 11.859 36.311zM119.202 471.846s.616 9.938 2.537 10.083c.256.019 9.753.019 9.753.019l12.124-.071s-.08-2.92-3.623-3.54c-3.543-.617-9.475-3.108-11.621-7.792-2.26-4.924-9.17 1.301-9.17 1.301z" fill="#292620"/><path d="M138.804 350.943s.45 30.56-4.838 68.082c-5.288 37.522-3.497 53.448-3.497 53.448s-3.632 1.178-5.1 1.298c-3.734.305-7.564-.876-7.564-.876s-7.566-37.534-5.399-56.315c2.171-18.782-10.363-64.444-10.363-64.444l36.761-1.193z" fill="#5C5C5C"/><path d="M114.287 279.429l6.75 4.425 6.148-1.739c1.122-1.604 1.422-4.693 1.437-7.37.015-2.657-.241-4.908-.241-4.908l-9.105-4.018-3.398-1.499c.009.053.265 2.791.302 3.189.632 7.098-1.893 11.92-1.893 11.92z" fill="#D4B982"/><path d="M138.958 359.438c-8.4 8.109-40.19 6.746-42.15-2.19-1.956-8.935 2.136-76.068 16.483-80.283 2.979-.875 18.895 4.271 18.895 4.271s2.498 6.534 4.135 14.853c.318 1.618 1.246 18.775 1.94 34.824.323 7.505.598 14.773.737 20.091.135 4.983.141 8.258-.04 8.434z" fill="#5C5C5C"/><path d="M116.858 267.638c1.847 3.123 8.329 5.855 11.764 7.107.015-2.658-.241-4.909-.241-4.909l-9.105-4.017c-2.014-.025-3.241.422-2.418 1.819z" fill="#B89B61"/><path d="M131.814 269.285s-14.671 4.575-17.382-4.604c-2.71-9.179-6.429-14.773 2.825-18.081 9.253-3.312 12.115-.346 13.764 2.497 1.653 2.843 4.539 18.76.793 20.188z" fill="#D4B982"/><path d="M130.447 248.213s-.934 10.684-3.145 10.218c-2.208-.462-4.64-1.455-4.317 1.764.324 3.219-2.149 8.741-5.334 8.726-6.833-.028-14.255-17.56-12.386-20.884 5.396-9.59 32.98-11.526 25.182.176zM128.289 277.196c-.188-.08-10.922-4.893-12.177-4.48-1.255.413-2.818 4.249-2.818 4.249l18.898 4.274c-.003 0-1.489-3.025-3.903-4.043zM195.101 329.187l-60.158 56.642c-1.178 1.11-2.667 1.465-3.305.786l-2.032-2.158c-.638-.678-.194-2.14.984-3.25l60.16-56.639c1.178-1.11 2.667-1.465 3.306-.787l2.032 2.159c.635.675.194 2.137-.987 3.247z" fill="#292620"/><path d="M161.344 360.974l-26.401 24.855c-1.178 1.11-2.667 1.465-3.305.786l-2.032-2.158c-.638-.678-.194-2.14.984-3.25l26.4-24.855 4.354 4.622z" fill="#5C5C5C"/><path d="M181.275 307.803c2.309 7.61 6.586 14.739 12.796 20.582 18.966 17.844 48.811 16.931 66.654-2.032 17.61-18.72 16.953-48.021-1.295-65.936-.24-.24-.49-.478-.74-.712-18.963-17.844-48.804-16.937-66.645 2.029-12.007 12.756-15.525 30.433-10.77 46.069zm13.477-43.519c10.385-11.039 25.18-15.439 39.074-13.031a43.2 43.2 0 0122.314 11.162c17.471 16.435 18.307 43.92 1.872 61.388a43.248 43.248 0 01-21.587 12.5c-13.724 3.25-28.762-.237-39.801-10.625-17.471-16.438-18.309-43.921-1.872-61.394z" fill="#292620"/><path opacity=".5" d="M258.012 323.8a43.235 43.235 0 01-21.59 12.5c-13.724 3.247-28.762-.24-39.801-10.625-17.467-16.435-18.306-43.921-1.872-61.391 10.385-11.039 25.18-15.436 39.074-13.031a43.207 43.207 0 0122.314 11.159c17.474 16.435 18.31 43.92 1.875 61.388z" fill="#fff"/><path d="M139.004 351.004c-33.146-23.622-30.393-55.14-30.393-55.14 12.115 6.832 24.137 21.941 29.653 35.049.327 7.505.602 14.772.74 20.091z" fill="#292620"/><path d="M171.719 340.25c2.337-.54 3.907-2.307 4.233-2.615 0 0 .996.068-.163 2.195-.096.179-.311.635-.475.959a.204.204 0 00.173.296c1.35.102 2.704-.432 5.303.111.358.074.463.934.45 1.298-.024.62.022 1.314-.699 2.263-.42.552-1.588 1.147-4.188 2.193-.99.398-3.826.098-6.481-.814l-2.122-.984.657-3.944.534.111c.848.179 1.896-.854 2.778-1.069z" fill="#D4B982"/><path d="M118.9 281.239s-29.786 5.671 8.763 48.802c6.163 6.897 39.474 15.879 39.474 15.879s3.379-2.874 1.674-5.202c0 0-22.935-16.653-27.979-19.302-2.269-1.19-8.809-26.582-12.509-32.696-3.704-6.112-9.423-7.481-9.423-7.481z" fill="#5C5C5C"/><path d="M176.304 297.325s.974-1.862 1.165-2.843c.191-.98 1.416-3.845 1.921-4.35.204-.204.87.058.947.928.034.379-.151 1.063-.478 1.884-.534 1.332-.444 3.139-.629 3.743-.463 1.498-2.926.638-2.926.638z" fill="#D4B982"/><path d="M574.54 240.476l-16.863 3.923-8.338 15.173-6.367-34.577 31.568 15.481z" fill="#233862"/><path d="M556.722 241.062l-2.458 1.862 10.77 14.214 2.458-1.862-10.77-14.214z" fill="#233862"/><path d="M518.94 400.286s6.972-8.187.389-13.352c0 0-4.804-2.889-8.714-2.639 0 0 5.572 9.275 3.78 10.203-1.788.931-5.461-10.783-5.461-10.783s-10.918-1.023-14.424.676c0 0 9.355 7.606 7.391 8.066-1.964.459-12.065-7.003-12.065-7.003s-10.154 1.761-9.593 7.956c.561 6.194 4.067 8.097 5.606 7.927 1.538-.17 10.527-3.632 10.727-2.374.2 1.258-5.205 5.396-8.997 5.602 0 0 7.187 7.875 11.939 5.581 4.751-2.294 5.146-5.907 8.109-7.273 2.963-1.366 5.495-1.369 4.274.015-1.221 1.388-6.587 2.747-8.273 5.754-1.687 3.006-3.204 5.035 1.72 4.279 4.921-.755 12.914-4.384 13.253-8.513l.339-4.122z" fill="#292620"/><path d="M485.235 393.566s27.587-1.15 33.705 6.719c0 0 1.36 4.03 5.519 7.693l.651 1.761s-4.798-5.026-6.509-5.325c0 0 2.645-9.784-33.366-10.848z" fill="#292620"/><path d="M524.456 407.978s5.935 4.36 6.373 12.186l-1.076.098s-1.918-8.084-5.347-11.239c-3.425-3.151.05-1.045.05-1.045zM555.931 378.696s-11.149-6.197-5.981-14.674c0 0 4.137-5.208 8.587-6.558 0 0-2.334 12.623.04 12.913 2.374.29 1.588-14.251 1.588-14.251s11.708-5.677 16.308-5.245c0 0-7.234 12.34-4.859 12.038 2.374-.306 10.496-12.797 10.496-12.797s12.013-2.263 13.964 4.854c1.952 7.116-1.153 10.69-2.932 11.14-1.779.45-13.206.339-12.907 1.822.302 1.483 8.026 3.833 12.327 2.486 0 0-4.711 11.738-10.946 11.165-6.234-.574-8.177-4.428-12.037-4.712-3.861-.284-6.676.765-4.743 1.795 1.934 1.033 8.461.314 11.585 2.954 3.123 2.639 5.652 4.264-.13 5.47-5.784 1.205-16.175.496-18.266-3.95l-2.094-4.45z" fill="#292620"/><path d="M590.592 357.214s-31.134 10.191-34.661 21.483c0 0 .163 5.044-2.935 10.844l.006 2.226s3.24-7.579 5.02-8.624c0 0-7.006-9.775 32.57-25.929z" fill="#B89B61"/><path d="M552.996 389.538s-4.783 7.314-2.017 16.191l1.237-.336s-1.231-9.78 1.267-14.711c2.501-4.93-.487-1.144-.487-1.144z" fill="#B89B61"/><path d="M538.196 370.155s14.646-8.264 7.764-19.392c0 0-5.501-6.829-11.375-8.572 0 0 3.182 16.62.056 17.021-3.13.401-2.211-18.775-2.211-18.775s-15.479-7.385-21.541-6.78c0 0 9.639 16.206 6.506 15.827-3.133-.383-13.943-16.78-13.943-16.78s-15.855-2.883-18.368 6.515c-2.513 9.398 1.609 14.082 3.959 14.662 2.35.579 17.412.336 17.027 2.294-.386 1.958-10.549 5.121-16.228 3.376 0 0 6.308 15.436 14.523 14.628 8.214-.808 10.742-5.905 15.827-6.312 5.084-.407 8.806.95 6.268 2.328-2.537 1.378-11.149.484-15.247 3.99-4.098 3.506-7.416 5.667.219 7.209 7.634 1.542 21.325.518 24.047-5.359l2.717-5.88z" fill="#292620"/><path d="M492.328 342.13s41.126 13.172 45.869 28.025c0 0-.176 6.651 3.959 14.27l.009 2.935s-4.335-9.962-6.688-11.325c0-.003 9.152-12.944-43.149-33.905z" fill="#B89B61"/><path d="M542.153 384.425s6.367 9.601 2.791 21.325l-1.632-.432s1.542-12.904-1.794-19.382c-3.336-6.479.635-1.511.635-1.511z" fill="#B89B61"/><path d="M655.668 482.691H505.293c-20.965-23.983-15.43-56.381 12.398-83.706 3.5-3.435 10.212-5.874 17.449-7.591 13.339-3.167 28.469-3.898 28.586-3.959.044-.016 7.996-6.463 12.778-12.257 14.862-17.992 27.504-16.447 27.504-16.447 15.149-2.948 28.069-3.814 37.649 1.517 0 .003 0 .003.003.006 8.874 4.946 14.881 15.217 17.128 34.094.426 3.57.719 7.446.87 11.655.549 15.318 3.567 28.944 5.362 40.482.003 0 .003.003.003.003 2.599 16.716 4.437 29.425-9.355 36.203z" fill="#D4B982"/><path d="M634.152 379.495c-9.192 5.008-10.209 21.501-24.594 25.759-14.387 4.261-38.807 3.873-52.661 18.898-13.364 14.499-28.103-22.385-21.757-32.761 13.339-3.167 28.469-3.897 28.586-3.959.044-.016 7.996-6.463 12.778-12.257 14.862-17.992 27.504-16.447 27.504-16.447 15.149-2.948 28.069-3.814 37.649 1.517 0 .003 0 .003.003.006 10.554 10.91 1.684 14.237-7.508 19.244z" fill="#B89B61"/><path d="M534.662 450.809s2.648 7.02 2.099 9.629c-.548 2.609.367 7.662-.693 9.926-1.061 2.263-2.957 5.556-1.123 6.382.694.315 8.754-5.978 9.211-7.829.456-1.85.798-7.304 2.337-10.27 1.535-2.967.234-5.35-2.004-6.432-2.239-1.083-5.372-7.037-5.372-7.037l-4.455 5.631z" fill="#5C5C5C"/><path d="M577.728 384.24s-43.998-2.716-49.668 3.121c-5.976 6.148 3.759 66.626 3.759 66.626s11.932.343 12.87-2.818c0 0-2.239-29.28-.376-34.346 1.862-5.066.681-12.075.681-12.075s23.345 3.488 30.751 1.711c7.403-1.776 1.983-22.219 1.983-22.219z" fill="#292620"/><path d="M588.387 351.945c-.004.037-6.485 15.133-9.648 16.743-3.164 1.609-14.613 14.775-17.07 14.547-2.455-.228 2.534 2.689 2.534 2.689s20.357-9.932 21.52-10.508c1.162-.577 7.292-10.666 8.13-15.787.842-5.122-5.466-7.684-5.466-7.684z" fill="#D4B982"/><path d="M526.536 462.399s-2.506 7.074-4.609 8.711c-2.103 1.64-4.662 6.09-6.935 7.135-2.269 1.045-5.843 2.337-4.976 4.15.329.688 10.545 1.08 12.087-.037 1.541-1.119 5.325-5.066 8.411-6.339 3.087-1.274 3.629-3.938 2.618-6.207-1.011-2.269.435-8.84.435-8.84l-7.031 1.427z" fill="#5C5C5C"/><path d="M601.639 345.241c-.94-1.085 22.888 1.591 26.055 13.765 0 0 18.3-14.425 1.514-26.579-5.812-4.209-6.398-8.702-7.24-12.812-.841-4.113-6.641-15.926-16.703-10.058 0 0-4.597.021-7.505 2.544-6.614 5.729-13.829 42.162 3.879 33.14z" fill="#292620"/><path d="M597.002 386.374s-47.833 4.881-52.036 9.765c-4.202 4.884-20.705 68.381-20.705 68.381s4.881 2.72 9.318.176c0 0 12.649-21.544 18.245-28.306 5.596-6.765 7.687-27.639 8.609-27.855.925-.213 30.902 4.172 41.222-3.756 10.32-7.927-4.653-18.405-4.653-18.405z" fill="#5C5C5C"/><path d="M623.627 342.956s-11.411-5.093-25.879-2.756c-2.957.478-5.618 1.449-7.733 4.933-2.985 4.921-4.381 7.564-4.381 7.564s.289 2.279 4.369 4.095c-1.11 4.079 1.02 11.202-.941 13.968-1.961 2.765-14.116 9.623-14.714 13.437-1.101 7.006 20.779 19.697 27.304 18.337 18.772-3.906 31.506-54.216 21.975-59.578z" fill="#5C5C5C"/><path d="M617.165 328.526s2.248-4.428 2.544-8.057c.212-2.593-1.98-11.921-11.35-9.66 0 0-2.732.533-5.159 2.528-1.93 1.588-4.622 4.875-.515 12.809l1.129 2.704 13.351-.324z" fill="#292620"/><path d="M604.325 343.459c-.947.999-.574 4.32 3.86 4.07 2.911-.164 9.149-3.765 8.563-6.253-.277-1.181-2.516-4.231-3.046-11.246l-.528.148-8.883 2.501s.429 2.824.648 5.501c.182 2.248-.222 4.865-.614 5.279z" fill="#D4B982"/><path d="M604.291 332.683s.428 2.824.647 5.5c5.038-.539 7.345-5.359 8.239-7.998l-8.886 2.498z" fill="#B89B61"/><path d="M604.099 336.79s11.625-2.93 9.692-10.142c-1.937-7.212-1.739-12.447-9.244-10.881-7.506 1.566-8.202 4.702-8.141 7.268.062 2.565 4.622 14.331 7.693 13.755z" fill="#D4B982"/><path d="M599.231 317.012s3.907 7.438 11.27 8.236c4.31.469 5.491 3.306 5.491 3.306s-1.295-8.119-3.462-13.083c0 0-11.995-3.13-13.299 1.541z" fill="#292620"/><path d="M600.563 317.996s-2.544 2.599-3.33 4.43c-1.163 2.714 1.107 8.427 2.044 9.661 0 0-5.414-9.176-3.608-13.154 1.918-4.215 4.894-.937 4.894-.937z" fill="#292620"/><path d="M565.125 384.962s-2.315 2.451-2.596 2.584c-1.529.718-3.466.299-4.4.536-.934.235-.774-.345-.083-.82.687-.472 2.386-.287 1.692-.459-.693-.173-4.437-.87-5.846-.491-2.229.599-3.99-.101-4.131-.329-.139-.229 5.093-2.788 6.589-2.702 1.495.087 5.794-.123 5.794-.123l2.981 1.804zM627.562 347.476s14.427 32.568 10.422 37.35c-3.978 4.748-31.741-1.021-31.741-1.021l.854-3.025s20.416-1.248 21.871-1.661c2.091-.593-10.345-23.434-10.345-23.434l8.939-8.209z" fill="#D4B982"/><path d="M622.18 342.423c.346.009 4.659 1.421 7.755 7.548 3.044 6.019 4.151 8.942 4.151 8.942s-13.487 10.459-18.852 6.611c-5.366-3.848 1.998-23.231 6.946-23.101z" fill="#5C5C5C"/><path d="M609.48 380.636s-2.318-1.505-3.256-2.325c-.937-.82-6.367-1.493-6.367-.941.003.549 3.163 1.295 3.509 1.844.345.549 2.275 2.809 3.925 2.806a2.351 2.351 0 002.189-1.384z" fill="#D4B982"/><path d="M603.147 385.529l-6.222-.885c-.929-.132-1.872-.91-2.106-1.736l-3.435-12.149c-.235-.826.33-1.387 1.261-1.254l6.222.884c.928.133 1.872.91 2.106 1.736l3.435 12.149c.231.826-.333 1.388-1.261 1.255z" fill="#5C5C5C"/><path d="M601.852 385.347l-6.222-.885c-.929-.132-1.872-.909-2.106-1.735l-3.435-12.149c-.235-.827.33-1.388 1.261-1.255l6.222.885c.928.132 1.872.909 2.106 1.736l3.435 12.148c.231.824-.333 1.385-1.261 1.255z" fill="#292620"/><path d="M591.149 370.874c-.096-.342.139-.577.524-.521.385.055.777.376.876.721.098.346-.139.577-.525.521-.385-.058-.777-.379-.875-.721z" fill="#5C5C5C"/><path d="M606.24 383.809s-4.209.058-5.264-.191c-1.057-.25-3.752-3.596-3.034-4.434.454-.528 2.97.419 4.166.416 1.2-.003 4.311-1.736 6.441 1.81.241.398-2.309 2.399-2.309 2.399zM624.306 391.816s-4.532 4.246-23.495 4.856c-18.963.611-43.683 21.566-43.914 27.483-.232 5.917 38.182 14.905 38.777 14.057.595-.848 24.356-21.263 24.356-21.263l4.276-25.133z" fill="#D4B982"/><path d="M665.023 446.488c-21.097-26.332-64.434 9.565-75.649 8.554-10.311-.931 20.107-36.924 57.83-42.28 15.247-2.165 11.596-17.924 11.59-18.411.426 3.57.719 7.446.87 11.655.546 15.316 3.564 28.944 5.359 40.482z" fill="#B89B61"/><path d="M720.142 484.286L.876 484.039a.88.88 0 01-.876-.876v-.45a.88.88 0 01.876-.876l719.266.247a.88.88 0 01.876.876v.45a.88.88 0 01-.876.876z" fill="#2E3552"/><path d="M423.023 83.906l41.084 8.498-26.339-20.465-1.773 5.924-10.193 1.196-2.779 4.847z" fill="#B89B61"/><path d="M464.107 92.404l-33.384-19.937-33.705-3.808 67.089 23.745zM437.769 71.94l26.338 20.464-19.466-30.63-6.872 10.165z" fill="#D4B982"/><path d="M164.865 199.525l-41.084 8.501 26.339-20.468 1.773 5.923 10.194 1.197 2.778 4.847z" fill="#B89B61"/><path d="M123.781 208.026l33.384-19.938 33.702-3.811-67.086 23.749z" fill="#D4B982"/><path d="M150.12 187.558l-26.338 20.468 19.465-30.634 6.873 10.166z" fill="#D4B982"/><path d="M232.176 211.396l1.202-1.428c1.089.941 2.177 1.477 3.589 1.477 1.234 0 2.014-.567 2.014-1.461 0-.811-.453-1.252-2.566-1.755-2.42-.567-3.783-1.282-3.783-3.41 0-1.949 1.625-3.296 3.882-3.296 1.656 0 2.973.502 4.126 1.427l-1.073 1.511c-1.024-.764-2.048-1.168-3.087-1.168-1.168 0-1.85.601-1.85 1.381 0 .876.521 1.267 2.695 1.785 2.402.586 3.654 1.447 3.654 3.361 0 2.128-1.671 3.395-4.061 3.395-1.736 0-3.376-.601-4.742-1.819zM242.635 208.766c0-2.451 1.736-4.465 4.19-4.465 2.729 0 4.107 2.143 4.107 4.613 0 .13-.015.453-.034.552h-6.299c.21 1.397 1.202 2.177 2.467 2.177.959 0 1.64-.358 2.321-1.024l1.154 1.024c-.811.974-1.934 1.606-3.509 1.606-2.482-.003-4.397-1.803-4.397-4.483zm6.349-.601c-.13-1.267-.876-2.257-2.177-2.257-1.203 0-2.045.925-2.224 2.257h4.401zM258.156 213.052v-1.055c-.585.7-1.477 1.234-2.778 1.234-1.625 0-3.052-.925-3.052-2.68 0-1.899 1.477-2.809 3.475-2.809 1.039 0 1.705.145 2.371.358v-.163c0-1.185-.746-1.835-2.112-1.835-.959 0-1.671.21-2.452.536l-.536-1.575c.94-.423 1.868-.716 3.265-.716 2.535 0 3.768 1.332 3.768 3.62v5.082h-1.949v.003zm.05-3.589a5.634 5.634 0 00-1.964-.342c-1.234 0-1.965.502-1.965 1.362 0 .811.731 1.268 1.656 1.268 1.298 0 2.273-.731 2.273-1.804v-.484zM262.443 204.48h1.964v1.933c.537-1.282 1.526-2.158 3.037-2.093v2.078h-.114c-1.72 0-2.923 1.119-2.923 3.395v3.262h-1.964v-8.575zM268.388 208.781c0-2.435 1.884-4.48 4.449-4.48 1.625 0 2.63.602 3.426 1.477l-1.218 1.317c-.601-.632-1.234-1.073-2.223-1.073-1.428 0-2.467 1.233-2.467 2.759 0 1.527 1.054 2.76 2.565 2.76.925 0 1.607-.438 2.223-1.073l1.185 1.169c-.845.94-1.835 1.606-3.509 1.606-2.547.003-4.431-1.992-4.431-4.462zM278.131 201.199h1.964v4.613c.552-.811 1.347-1.511 2.68-1.511 1.933 0 3.052 1.298 3.052 3.296v5.455h-1.964v-4.872c0-1.332-.666-2.094-1.835-2.094-1.137 0-1.933.796-1.933 2.128v4.838h-1.964v-11.853zM288.069 210.829h2.158v2.223h-2.158v-2.223zM292.435 210.829h2.158v2.223h-2.158v-2.223zM296.804 210.829h2.159v2.223h-2.159v-2.223zM301.173 210.829h2.159v2.223h-2.159v-2.223zM414.76 317.633c0-1.163.941-2.103 2.103-2.103 1.163 0 2.103.94 2.103 2.103 0 1.162-.94 2.103-2.103 2.103a2.106 2.106 0 01-2.103-2.103z" fill="#5C5C5C"/><path d="M512.558 318.197h-95.127a.567.567 0 010-1.134h95.127a.568.568 0 010 1.134z" fill="#5C5C5C"/></svg>